<svg xmlns="http://www.w3.org/2000/svg" xmlns:xlink="http://www.w3.org/1999/xlink" width="50" zoomAndPan="magnify" viewBox="0 0 375 374.999991" height="50" preserveAspectRatio="xMidYMid meet" version="1.0"><defs><clipPath id="b18c23b681"><path d="M 8 8 L 367 8 L 367 367 L 8 367 Z M 8 8 " clip-rule="nonzero"/></clipPath><clipPath id="448d403340"><path d="M 201.820312 14.320312 L 360.679688 173.179688 C 364.480469 176.980469 366.613281 182.128906 366.613281 187.5 C 366.613281 192.871094 364.480469 198.019531 360.679688 201.820312 L 201.820312 360.679688 C 193.910156 368.589844 181.089844 368.589844 173.179688 360.679688 L 14.320312 201.820312 C 6.410156 193.910156 6.410156 181.089844 14.320312 173.179688 L 173.179688 14.320312 C 181.089844 6.410156 193.910156 6.410156 201.820312 14.320312 " clip-rule="nonzero"/></clipPath><clipPath id="3f5da77f8a"><path d="M 102.125 108.5625 L 282 108.5625 L 282 270.5625 L 102.125 270.5625 Z M 102.125 108.5625 " clip-rule="nonzero"/></clipPath><clipPath id="7e2276f28a"><path d="M 100.625 108.5625 L 167.375 108.5625 L 167.375 268 L 100.625 268 Z M 100.625 108.5625 " clip-rule="nonzero"/></clipPath><clipPath id="ae92559b82"><path d="M 120.804688 260.519531 L 229.191406 260.519531 L 229.191406 270.726562 L 120.804688 270.726562 Z M 120.804688 260.519531 " clip-rule="nonzero"/></clipPath><clipPath id="cf2d043174"><path d="M 117 260 L 129 260 L 129 273 L 117 273 Z M 117 260 " clip-rule="nonzero"/></clipPath><clipPath id="ebb1528a94"><path d="M 120.988281 272.011719 L 116.015625 267.042969 L 123.472656 259.582031 L 128.445312 264.554688 Z M 120.988281 272.011719 " clip-rule="nonzero"/></clipPath><clipPath id="1d1aff7c96"><path d="M 120.988281 272.011719 L 116.691406 267.71875 L 123.898438 260.511719 L 128.191406 264.808594 Z M 120.988281 272.011719 " clip-rule="nonzero"/></clipPath></defs><g clip-path="url(#b18c23b681)"><g clip-path="url(#448d403340)"><rect x="-37.5" width="450" fill="#ffffff" y="-37.499999" height="449.999989" fill-opacity="1"/><path stroke-linecap="butt" transform="matrix(0.75, 0, 0, 0.75, 0.0000045, 0)" fill="none" stroke-linejoin="miter" d="M 269.093744 19.09375 L 480.906245 230.90625 C 485.973953 235.973959 488.817703 242.838542 488.817703 250 C 488.817703 257.161459 485.973953 264.026042 480.906245 269.09375 L 269.093744 480.906251 C 258.546869 491.453126 241.453119 491.453126 230.906244 480.906251 L 19.093744 269.09375 C 8.546869 258.546875 8.546869 241.453125 19.093744 230.90625 L 230.906244 19.09375 C 241.453119 8.546875 258.546869 8.546875 269.093744 19.09375 " stroke="#1d1e1c" stroke-width="32" stroke-opacity="1" stroke-miterlimit="4"/></g></g><g clip-path="url(#3f5da77f8a)"><path fill="#1d1e1c" d="M 264.386719 108.5625 L 208.082031 108.5625 L 190.15625 166.457031 L 177.46875 126.09375 L 159.898438 108.5625 L 102.328125 108.5625 L 157.050781 253.101562 L 174.625 270.632812 L 228.152344 270.632812 L 281.957031 126.09375 Z M 264.386719 108.5625 " fill-opacity="1" fill-rule="nonzero"/></g><path fill="#ffffff" d="M 112.484375 115.574219 L 154.730469 115.574219 L 184.183594 209.480469 L 213.25 115.574219 L 254.265625 115.574219 L 205.691406 246.085938 L 161.898438 246.085938 Z M 112.484375 115.574219 " fill-opacity="1" fill-rule="nonzero"/><g clip-path="url(#7e2276f28a)"><path fill="#1d1e1c" d="M 150.1875 107.363281 L 100.625 107.363281 L 100.625 250.214844 L 117.917969 267.542969 L 167.480469 267.542969 L 167.480469 124.691406 Z M 150.1875 107.363281 " fill-opacity="1" fill-rule="nonzero"/></g><path fill="#ffffff" d="M 107.542969 114.292969 L 143.269531 114.292969 L 143.269531 138.65625 L 107.542969 138.65625 Z M 107.542969 149.851562 L 143.269531 149.851562 L 143.269531 243.285156 L 107.542969 243.285156 Z M 107.542969 149.851562 " fill-opacity="1" fill-rule="nonzero"/><g clip-path="url(#ae92559b82)"><path fill="#1d1e1c" d="M 120.804688 260.519531 L 229.789062 260.519531 L 229.789062 271.066406 L 120.804688 271.066406 Z M 120.804688 260.519531 " fill-opacity="1" fill-rule="nonzero"/></g><g clip-path="url(#cf2d043174)"><g clip-path="url(#ebb1528a94)"><g clip-path="url(#1d1aff7c96)"><path fill="#1d1e1c" d="M 120.988281 272.011719 L 117.257812 268.285156 L 124.71875 260.828125 L 128.445312 264.554688 Z M 120.988281 272.011719 " fill-opacity="1" fill-rule="nonzero"/></g></g></g></svg>
